<?xml version="1.0" encoding="utf-8"?>
<!-- Generator: Adobe Illustrator 24.0.1, SVG Export Plug-In . SVG Version: 6.00 Build 0)  -->
<svg version="1.1" id="Layer_1" xmlns="http://www.w3.org/2000/svg" xmlns:xlink="http://www.w3.org/1999/xlink" x="0px" y="0px"
	 viewBox="0 0 16 16" style="enable-background:new 0 0 16 16;" xml:space="preserve">
<path d="M10.8,3.37l1.58,1.4v0.23c-0.3,0.25-0.61,0.48-0.89,0.75c-0.5,0.48-0.97,0.98-1.47,1.45C9.8,7.43,9.82,7.58,10.1,7.81
	c0.32,0.27,0.62,0.57,0.88,0.9c0.21,0.25,0.35,0.26,0.56,0.04c0.74-0.77,1.5-1.52,2.25-2.26c0.42,0.45,0.83,0.88,1.2,1.26
	l-4.02,4.13c-0.11-0.17-0.23-0.33-0.37-0.48c-0.67-0.69-1.37-1.36-2.03-2.06C8.32,9.06,8.15,9.07,7.9,9.32
	C7.44,9.8,6.98,10.3,6.47,10.74c-1.07,0.92-2.17,0.97-3.31,0.15C2.1,10.11,1.52,9.05,1.5,7.71C1.5,7.46,1.57,7.36,1.84,7.32
	C2.3,7.27,2.75,7.15,3.15,7.07C3.31,7.61,3.4,8.15,3.61,8.64c0.31,0.72,1.04,0.86,1.59,0.3c1.82-1.81,3.64-3.64,5.46-5.46
	c0.02-0.03,0.04-0.06,0.05-0.1L10.8,3.37z"/>
<path d="M5.77,3.66l1.86,1.95L6.18,7.01L4.29,5.12l1.39-1.45H5.77z"/>
</svg>
